<svg width="95" height="183" viewBox="0 0 95 183" fill="none" xmlns="http://www.w3.org/2000/svg">
<path d="M50.928 55.7576C48.9168 58.3371 45.0114 58.3229 43.0193 55.7287L9.6972 12.3364C6.73743 8.48221 10.46 3.09781 15.1113 4.50541L45.3662 13.6614C46.2921 13.9417 47.2795 13.9472 48.2086 13.6775L79.297 4.6513C83.9542 3.29913 87.616 8.70284 84.6341 12.5273L50.928 55.7576Z" fill="#8D88DA"/>
<path d="M50.928 115.758C48.9168 118.337 45.0114 118.323 43.0193 115.729L9.6972 72.3364C6.73743 68.4822 10.46 63.0978 15.1113 64.5054L45.3662 73.6614C46.2921 73.9417 47.2795 73.9472 48.2086 73.6775L79.297 64.6513C83.9542 63.2991 87.616 68.7028 84.6341 72.5273L50.928 115.758Z" fill="#8D88DA"/>
<path d="M50.928 176.758C48.9168 179.337 45.0114 179.323 43.0193 176.729L9.6972 133.336C6.73743 129.482 10.46 124.098 15.1113 125.505L45.3662 134.661C46.2921 134.942 47.2795 134.947 48.2086 134.677L79.297 125.651C83.9542 124.299 87.616 129.703 84.6341 133.527L50.928 176.758Z" fill="#8D88DA"/>
</svg>
