<svg width="293" height="285" viewBox="0 0 293 285" fill="none" xmlns="http://www.w3.org/2000/svg">
<path fill-rule="evenodd" clip-rule="evenodd" d="M0 100.676V0.188227C0 0.188227 123.704 -4.88808 182.694 37.6836C224.503 67.8562 249.404 92.9258 262.497 142.671C271.196 175.721 265.509 230.16 265.509 230.16C265.509 230.16 259.125 234.588 254.467 234.66C249.626 234.733 242.923 230.16 242.923 230.16C242.923 230.16 244.998 172.825 228.869 142.671C218.126 122.584 205.197 114.591 186.604 103.098C185.328 102.309 184.025 101.503 182.694 100.676C122.162 63.0584 0 100.676 0 100.676ZM250.307 283.045C252.299 285.64 256.204 285.654 258.216 283.074L291.922 239.844C294.904 236.02 291.242 230.616 286.585 231.968L255.496 240.994C254.567 241.264 253.58 241.258 252.654 240.978L222.399 231.822C217.748 230.415 214.025 235.799 216.985 239.653L250.307 283.045Z" fill="#8D88DA"/>
</svg>
