<svg width="25" height="25" viewBox="0 0 25 25" fill="none" xmlns="http://www.w3.org/2000/svg">
<g clip-path="url(#clip0_281_724)">
<path d="M8.38794 19.8002C8.70893 19.8002 9.01302 19.8651 9.30022 19.9948C9.58742 20.1246 9.83661 20.3053 10.0478 20.5371C10.259 20.7688 10.4279 21.0422 10.5546 21.3574C10.6813 21.6725 10.7447 22.0062 10.7447 22.3584C10.7447 22.7106 10.6813 23.0443 10.5546 23.3594C10.4279 23.6746 10.259 23.948 10.0478 24.1797C9.83661 24.4114 9.58742 24.5968 9.30022 24.7358C9.01302 24.8749 8.70893 24.9444 8.38794 24.9444C8.05005 24.9444 7.73751 24.8749 7.45031 24.7358C7.16311 24.5968 6.91392 24.4114 6.70275 24.1797C6.49157 23.948 6.32263 23.6746 6.19592 23.3594C6.06922 23.0443 6.00586 22.7106 6.00586 22.3584C6.00586 22.0062 6.06922 21.6725 6.19592 21.3574C6.32263 21.0422 6.49157 20.7688 6.70275 20.5371C6.91392 20.3053 7.16311 20.1246 7.45031 19.9948C7.73751 19.8651 8.05005 19.8002 8.38794 19.8002ZM18.9299 19.8558C19.2509 19.8558 19.5592 19.9207 19.8548 20.0504C20.1505 20.1802 20.4039 20.361 20.6151 20.5927C20.8262 20.8244 20.9952 21.0978 21.1219 21.413C21.2486 21.7281 21.3119 22.0618 21.3119 22.414C21.3119 22.7662 21.2486 23.0999 21.1219 23.415C20.9952 23.7302 20.8262 24.0036 20.6151 24.2353C20.4039 24.467 20.1505 24.6524 19.8548 24.7915C19.5592 24.9305 19.2509 25 18.9299 25C18.6089 25 18.3048 24.9305 18.0176 24.7915C17.7304 24.6524 17.4812 24.467 17.27 24.2353C17.0589 24.0036 16.8899 23.7302 16.7632 23.415C16.6365 23.0999 16.5731 22.7662 16.5731 22.414C16.5731 22.0618 16.6365 21.7281 16.7632 21.413C16.8899 21.0978 17.0589 20.8244 17.27 20.5927C17.4812 20.361 17.7304 20.1802 18.0176 20.0504C18.3048 19.9207 18.6089 19.8558 18.9299 19.8558ZM23.1872 4.06173C23.6602 4.06173 24.0277 4.13125 24.2895 4.27028C24.5514 4.40931 24.7372 4.58078 24.847 4.7847C24.9569 4.98861 25.0075 5.20643 24.9991 5.43815C24.9906 5.66987 24.9611 5.86915 24.9104 6.03599C24.8597 6.20283 24.7499 6.54578 24.581 7.06483C24.412 7.58388 24.2304 8.15392 24.0361 8.77493C23.8418 9.39594 23.6476 10.0123 23.4533 10.6241C23.259 11.2358 23.1027 11.7178 22.9845 12.07C22.7648 12.8115 22.4903 13.3259 22.1609 13.6133C21.8314 13.9006 21.4218 14.0443 20.9318 14.0443H7.6277L7.98248 16.5468H20.7798C21.5907 16.5468 21.9962 16.9269 21.9962 17.6869C21.9962 18.0577 21.9159 18.3821 21.7554 18.6601C21.5949 18.9382 21.2782 19.068 20.8051 19.0494H7.52634C7.18845 19.0494 6.90548 18.966 6.67741 18.7992C6.44934 18.6323 6.25928 18.4145 6.10723 18.1457C5.95518 17.8769 5.8327 17.5849 5.73978 17.2698C5.64686 16.9547 5.57506 16.6581 5.52438 16.38C5.50749 16.2688 5.46103 16 5.385 15.5736C5.30898 15.1472 5.21606 14.6143 5.10625 13.9747C4.99644 13.3352 4.87396 12.6215 4.7388 11.8336C4.60365 11.0458 4.4685 10.2533 4.33335 9.45619C4.01236 7.58388 3.64913 5.4984 3.24367 3.19973H1.34308C1.08967 3.19973 0.878495 3.13021 0.709554 2.99118C0.540612 2.85215 0.401236 2.68531 0.291424 2.49066C0.181612 2.29602 0.105588 2.08747 0.063353 1.86502C0.0211177 1.64257 0 1.43865 0 1.25328C0 0.882524 0.114035 0.576653 0.342106 0.335664C0.570177 0.0946744 0.878495 -0.0165515 1.26706 0.00198618H3.82652C4.1644 0.00198618 4.43471 0.0575991 4.63744 0.168825C4.84017 0.280051 5.00066 0.419083 5.11892 0.585922C5.23718 0.752761 5.32165 0.924234 5.37233 1.10034C5.42302 1.27645 5.46525 1.42938 5.49904 1.55915C5.53283 1.70745 5.56662 1.916 5.60041 2.18479C5.63419 2.45359 5.66798 2.72702 5.70177 3.00508C5.75245 3.33876 5.80313 3.69098 5.85382 4.06173H23.1872ZM22.2496 6.53651L6.38598 6.48089L7.27292 11.5139L20.5264 11.5417L22.2496 6.53651Z" fill="#7F3744"/>
</g>
<defs>
<clipPath id="clip0_281_724">
<rect width="25" height="25" fill="white"/>
</clipPath>
</defs>
</svg>
