<svg width="24" height="24" viewBox="0 0 24 24" fill="none" xmlns="http://www.w3.org/2000/svg">
<g clip-path="url(#clip0_225_18)">
<path d="M21.6199 4.14453H2.38017C1.06768 4.14453 0 5.21216 0 6.5247V17.4756C0 18.7881 1.06768 19.8558 2.38017 19.8558H21.6198C22.9323 19.8558 24 18.7881 24 17.4756V6.5247C24 5.21216 22.9324 4.14453 21.6199 4.14453ZM22.4133 6.5247V17.4756C22.4133 17.6008 22.378 17.7151 22.3261 17.8204L16.7169 12.2109L22.4117 6.51614C22.4117 6.51931 22.4133 6.52159 22.4133 6.5247ZM1.58678 17.4756V6.5247C1.58678 6.52159 1.58839 6.51935 1.58839 6.51619L7.28311 12.2109L1.67359 17.8204C1.62204 17.715 1.58678 17.6008 1.58678 17.4756ZM12.2449 14.4393C12.114 14.5701 11.8861 14.5701 11.7552 14.4393L3.04765 5.73131H20.9528L12.2449 14.4393ZM8.40501 13.3329L10.6333 15.5612C10.9986 15.9264 11.484 16.1275 12 16.1275C12.516 16.1275 13.0015 15.9264 13.3668 15.5612L15.5951 13.3329L20.5308 18.269H3.46881L8.40501 13.3329Z" fill="#FFFDF3"/>
</g>
<defs>
<clipPath id="clip0_225_18">
<rect width="24" height="24" fill="white"/>
</clipPath>
</defs>
</svg>
