<svg width="25" height="25" viewBox="0 0 25 25" fill="none" xmlns="http://www.w3.org/2000/svg">
<g clip-path="url(#clip0_259_145)">
<path d="M11.1328 0.0585938C5.64453 0.761719 1.39648 4.69727 0.224609 10.1562C-0.0195312 11.3086 -0.0195312 13.8867 0.224609 15.0195C0.742187 17.3926 1.81641 19.4824 3.41797 21.2207C5.03906 22.9785 7.83203 24.5215 10.1855 24.9414L10.5469 25.0098V20.6055V16.2109H8.93555H7.32422V14.4043V12.5977H8.92578H10.5273L10.5664 10.5664C10.6152 8.28125 10.7422 7.70508 11.377 6.76758C12.3633 5.30273 13.9258 4.75586 16.4844 4.98047C17.207 5.03906 17.8613 5.11719 17.9297 5.14648C18.0371 5.18555 18.0664 5.51758 18.0664 6.68945V8.17383L16.9629 8.23242C15.4199 8.31055 15.0195 8.50586 14.6387 9.32617C14.4922 9.64844 14.4531 9.9707 14.4531 11.1523V12.5977H16.1621C17.7246 12.5977 17.8711 12.6074 17.8711 12.7637C17.8711 12.8613 17.7637 13.6426 17.627 14.502C17.5 15.3613 17.3828 16.0938 17.3828 16.1328C17.3828 16.1816 16.7285 16.2109 15.918 16.2109H14.4531V20.6055V25.0098L14.8242 24.9414C16.3477 24.668 18.5937 23.6816 19.873 22.7344C23.2031 20.2637 25.166 16.1621 24.9707 12.0605C24.8242 8.85742 23.6621 6.15234 21.4746 3.85742C19.7363 2.04102 17.6172 0.849609 15.1367 0.283203C14.3262 0.0976562 11.9043 -0.0390625 11.1328 0.0585938Z" fill="#7F3744"/>
</g>
<defs>
<clipPath id="clip0_259_145">
<rect width="25" height="25" fill="white"/>
</clipPath>
</defs>
</svg>
