<svg width="25" height="25" viewBox="0 0 25 25" fill="none" xmlns="http://www.w3.org/2000/svg">
<g clip-path="url(#clip0_259_148)">
<path d="M4.36374 0.0304699C3.72748 0.0921459 2.83784 0.378105 2.34234 0.675278C1.9482 0.910774 1.37387 1.40419 1.06982 1.77426C0.686937 2.22843 0.298423 2.96856 0.129505 3.55729L0 4.00025V12.4949V20.9896L0.129505 21.4269C0.686937 23.3445 2.22973 24.6678 4.21171 24.9369C4.81982 25.021 20.0901 25.021 20.7489 24.9369C22.7421 24.6902 24.2962 23.3445 24.8705 21.3708L25 20.9335V12.4949V4.05632L24.8705 3.61897C24.2905 1.62287 22.7196 0.27718 20.6982 0.0472908C20.2534 -0.00317383 4.8536 -0.0199947 4.36374 0.0304699ZM22.1002 5.00952V7.11216H19.9887H17.8773V5.00952V2.90688H19.9887H22.1002V5.00952ZM13.4459 8.21113C14.2905 8.39617 15.2534 8.9793 15.8446 9.65775C16.616 10.5437 17.0158 11.8501 16.8694 12.9883C16.6554 14.6592 15.625 15.9769 14.0484 16.6049C13.2264 16.9301 11.982 16.9581 11.1486 16.6778C9.83671 16.2348 8.80068 15.2367 8.34459 13.9752C7.45495 11.5193 8.97523 8.76623 11.5259 8.21113C12.0214 8.1046 12.9561 8.1046 13.4459 8.21113ZM6.10923 9.96053C6.10923 9.98856 6.05856 10.1568 5.99662 10.3418C5.54617 11.6314 5.54054 13.2519 5.97973 14.5975C6.61599 16.5656 8.20946 18.2141 10.1577 18.9094C10.9854 19.2065 11.5259 19.2962 12.4718 19.2962C13.9583 19.2962 15.0901 18.9598 16.2838 18.1636C18.125 16.9357 19.2173 15.0125 19.3243 12.8313C19.3637 12.0127 19.2905 11.3623 19.0766 10.6558C18.9977 10.3867 18.9189 10.1119 18.9077 10.039L18.8795 9.91567L20.7264 9.92689L22.5788 9.94371L22.5957 15.0181C22.6126 20.3728 22.6014 20.6363 22.3536 21.169C22.1959 21.5166 21.7962 21.9596 21.4358 22.1895C20.8559 22.5539 21.3795 22.5315 12.4944 22.5315C4.55518 22.5315 4.42568 22.5315 4.05968 22.4194C3.26577 22.1727 2.63514 21.4718 2.45495 20.6363C2.40991 20.4289 2.39302 18.7748 2.39302 15.1302V9.91567H4.25113C5.2759 9.91567 6.10923 9.9381 6.10923 9.96053Z" fill="#7F3744"/>
</g>
<defs>
<clipPath id="clip0_259_148">
<rect width="25" height="25" fill="white"/>
</clipPath>
</defs>
</svg>
