<svg width="24" height="24" viewBox="0 0 24 24" fill="none" xmlns="http://www.w3.org/2000/svg">
<g clip-path="url(#clip0_225_23)">
<path d="M23.6904 17.618C23.5731 17.3961 23.425 17.1748 23.2489 16.9523C22.8475 16.4451 22.3016 15.9317 21.6431 15.4112C21.1837 15.048 20.6954 14.7019 20.2073 14.3827C19.9138 14.1907 19.6832 14.0488 19.5459 13.9684C18.3868 13.3084 17.0515 13.3959 16.3619 14.5073C16.3298 14.5453 16.2891 14.5935 16.2417 14.6494C16.1118 14.802 15.9801 14.9545 15.8552 15.0959C15.8282 15.1264 15.8282 15.1264 15.8013 15.1567C15.594 15.3896 15.4042 15.5856 15.4112 15.5809C14.6478 16.0975 14.1509 16.0568 13.4779 15.3838L8.61618 10.5221C7.94318 9.84914 7.90249 9.35224 8.41943 8.58843C8.41442 8.59583 8.61042 8.40607 8.84332 8.19874C8.87362 8.17181 8.87362 8.17181 8.90411 8.14483C9.0455 8.01993 9.19799 7.88818 9.35066 7.75836C9.40654 7.71087 9.45468 7.67013 9.49275 7.63814C10.6042 6.94852 10.6918 5.61345 10.0379 4.46491C9.95121 4.31678 9.80935 4.08622 9.61733 3.79267C9.29812 3.30467 8.95202 2.81629 8.58883 2.3569C8.06832 1.69843 7.55494 1.15254 7.04773 0.751134C6.82518 0.574994 6.6039 0.426955 6.38167 0.309403C5.34774 -0.23714 4.08001 -0.04681 3.25247 0.77914L2.17839 1.8542C-1.38463 5.41722 -0.402631 9.66344 3.85521 13.9213L6.96634 17.0334L10.0788 20.1449C14.3365 24.4026 18.5828 25.3846 22.1461 21.8212L23.2195 20.7469C24.0465 19.9215 24.2376 18.6516 23.6904 17.618ZM21.8069 19.3336L20.7328 20.4087C18.1261 23.0154 15.068 22.3082 11.4916 18.7318L8.37925 15.6205L5.26826 12.5086C1.6918 8.9321 0.984568 5.87398 3.59163 3.26692L4.665 2.19257C4.87144 1.9865 5.18832 1.93896 5.44754 2.076C5.55413 2.13239 5.67543 2.21355 5.80759 2.31813C6.17397 2.60807 6.58853 3.04896 7.02118 3.59625C7.34372 4.00426 7.65628 4.44534 7.94506 4.88669C8.11783 5.15083 8.24278 5.35395 8.30755 5.46447C8.48781 5.78125 8.47671 5.91969 8.42355 5.94957L8.27289 6.0534C8.22868 6.09026 8.15295 6.15395 8.05601 6.23638C7.89448 6.37379 7.73281 6.5134 7.58093 6.64757C7.54777 6.67694 7.54777 6.67694 7.51452 6.70644C7.11925 7.05835 6.89609 7.27439 6.76477 7.46818C5.71702 9.01635 5.84473 10.5768 7.20313 11.9352L12.0648 16.7969C13.4232 18.1553 14.9837 18.283 16.5314 17.2356C16.7256 17.104 16.9417 16.8808 17.2936 16.4855C17.3231 16.4523 17.3231 16.4523 17.3524 16.4191C17.4866 16.2673 17.6263 16.1056 17.7636 15.9441C17.8461 15.8472 17.9098 15.7714 17.9466 15.7272L18.0504 15.5765C18.0803 15.5234 18.2188 15.5123 18.5464 15.6988C18.6461 15.7573 18.8492 15.8823 19.1133 16.0551C19.5547 16.3438 19.9958 16.6563 20.4038 16.9789C20.9511 17.4116 21.3919 17.8261 21.6819 18.1925C21.7865 18.3246 21.8676 18.446 21.9242 18.5528C22.061 18.8109 22.0133 19.1275 21.8069 19.3336Z" fill="#FFFDF3"/>
<path d="M12.0103 9.99135C13.1151 9.99135 14.0086 10.8848 14.0086 11.9896C14.0086 12.5414 14.4559 12.9887 15.0076 12.9887C15.5594 12.9887 16.0067 12.5414 16.0067 11.9896C16.0067 9.78126 14.2186 7.99316 12.0103 7.99316C11.4585 7.99316 11.0112 8.44047 11.0112 8.99226C11.0112 9.54405 11.4585 9.99135 12.0103 9.99135Z" fill="#FFFDF3"/>
<path d="M12.0104 5.99481C15.3241 5.99481 18.005 8.67569 18.005 11.9895C18.005 12.5413 18.4523 12.9886 19.0041 12.9886C19.5559 12.9886 20.0032 12.5413 20.0032 11.9895C20.0032 7.57211 16.4277 3.99658 12.0103 3.99658C11.4585 3.99658 11.0112 4.44389 11.0112 4.99567C11.0112 5.54751 11.4586 5.99481 12.0104 5.99481Z" fill="#FFFDF3"/>
<path d="M13.0093 1.99823C17.9796 1.99823 22.0013 6.01994 22.0013 10.9902C22.0013 11.542 22.4486 11.9893 23.0004 11.9893C23.5522 11.9893 23.9995 11.542 23.9995 10.9902C23.9996 4.91636 19.0832 0 13.0093 0C12.4576 0 12.0103 0.447304 12.0103 0.999093C12.0103 1.55093 12.4576 1.99823 13.0093 1.99823Z" fill="#FFFDF3"/>
</g>
<defs>
<clipPath id="clip0_225_23">
<rect width="24" height="24" fill="white"/>
</clipPath>
</defs>
</svg>
