<svg width="26" height="26" viewBox="0 0 26 26" fill="none" xmlns="http://www.w3.org/2000/svg">
<circle cx="11" cy="11" r="12" transform="matrix(-1 0 0 1 24 2)" fill="white" stroke="#7F3744" stroke-width="2"/>
<path d="M14.2742 17.7208L18.6962 13.6757C19.1013 13.3029 19.1013 12.6979 18.6962 12.3263L14.2742 8.27888C13.8657 7.90611 13.2046 7.90798 12.7961 8.27888C12.3918 8.65228 12.3918 9.25486 12.7961 9.62826L15.3831 11.9942H7.0845C6.48501 11.9942 6 12.4407 6 12.9933C6 13.5453 6.48501 13.9924 7.0845 13.9924H15.3987L12.7961 16.3708C12.3918 16.7436 12.3918 17.3468 12.7961 17.7195C13.204 18.0929 13.8651 18.0935 14.2742 17.7208Z" fill="#7F3744"/>
</svg>
